<svg width="112" height="124" viewBox="0 0 112 124" fill="none" xmlns="http://www.w3.org/2000/svg">
<path d="M69.0622 3.02585C68.511 0.886592 66.3299 -0.400726 64.1906 0.150539L29.3295 9.13392C27.1902 9.68518 25.9029 11.8663 26.4542 14.0055C27.0054 16.1448 29.1865 17.4321 31.3258 16.8808L62.3135 8.89561L70.2987 39.8833C70.85 42.0225 73.031 43.3099 75.1703 42.7586C77.3096 42.2073 78.5969 40.0262 78.0456 37.887L69.0622 3.02585ZM11.7916 102.364L68.6335 6.05715L61.744 1.99085L4.90214 98.2977L11.7916 102.364Z" fill="#D5D2D2"/>
<path d="M64.7153 3.00186C64.1641 0.862604 61.983 -0.424714 59.8437 0.126549L24.9826 9.10993C22.8433 9.6612 21.556 11.8423 22.1073 13.9815C22.6585 16.1208 24.8396 17.4081 26.9789 16.8569L57.9666 8.87162L65.9518 39.8593C66.5031 41.9986 68.6842 43.2859 70.8234 42.7346C72.9627 42.1833 74.25 40.0022 73.6987 37.863L64.7153 3.00186ZM7.44475 102.34L64.2866 6.03316L57.3971 1.96686L0.555249 98.2737L7.44475 102.34Z" fill="#0B0C0F"/>
<path d="M52.1453 120.292C52.7354 122.421 54.9395 123.669 57.0684 123.079L91.7606 113.463C93.8895 112.873 95.1369 110.669 94.5469 108.54C93.9569 106.411 91.7528 105.164 89.6239 105.754L58.7864 114.301L50.2395 83.4633C49.6495 81.3344 47.4454 80.0869 45.3165 80.6769C43.1876 81.267 41.9401 83.4711 42.5302 85.6L52.1453 120.292ZM104.15 26.0298L52.5189 117.254L59.4811 121.194L111.112 29.9702L104.15 26.0298Z" fill="#D5D2D2"/>
<path d="M49.1453 118.292C49.7354 120.421 51.9395 121.669 54.0684 121.079L88.7606 111.463C90.8895 110.873 92.1369 108.669 91.5469 106.54C90.9569 104.411 88.7528 103.164 86.6239 103.754L55.7864 112.301L47.2395 81.4633C46.6495 79.3344 44.4454 78.0869 42.3165 78.6769C40.1876 79.267 38.9401 81.4711 39.5302 83.6L49.1453 118.292ZM101.15 24.0298L49.5189 115.254L56.4811 119.194L108.112 27.9702L101.15 24.0298Z" fill="#0B0C0F"/>
</svg>
